<?xml version="1.0" encoding="UTF-8" standalone="no"?>
<!DOCTYPE svg PUBLIC "-//W3C//DTD SVG 1.1//EN"
 "http://www.w3.org/Graphics/SVG/1.1/DTD/svg11.dtd">
<!-- Generated by graphviz version 14.1.3 (20260303.0454)
 -->
<!-- Title: G Pages: 1 -->
<svg width="678pt" height="1078pt"
 viewBox="0.00 0.00 678.00 1078.00" xmlns="http://www.w3.org/2000/svg" xmlns:xlink="http://www.w3.org/1999/xlink">
<g id="graph0" class="graph" transform="scale(1 1) rotate(0) translate(18 1059.6)">
<title>G</title>
<polygon fill="white" stroke="none" points="-18,18 -18,-1059.6 659.65,-1059.6 659.65,18 -18,18"/>
<!-- K -->
<g id="node1" class="node">
<title>K</title>
<polygon fill="#f5f8fa" stroke="#52687a" stroke-width="1.3" points="525.5,-821.6 397.79,-821.6 397.79,-785.6 525.5,-785.6 525.5,-821.6"/>
<text xml:space="preserve" text-anchor="middle" x="461.64" y="-798.8" font-family="DejaVu Sans" font-size="16.00">KHÁCH HÀNG</text>
</g>
<!-- R2 -->
<g id="node9" class="node">
<title>R2</title>
<polygon fill="#e7eff5" stroke="#52687a" stroke-width="1.3" points="263.64,-727.2 211.38,-693.6 263.64,-660 315.91,-693.6 263.64,-727.2"/>
<text xml:space="preserve" text-anchor="middle" x="263.64" y="-688.8" font-family="DejaVu Sans" font-size="16.00">Gửi</text>
</g>
<!-- K&#45;&gt;R2 -->
<g id="edge3" class="edge">
<title>K&#45;&gt;R2</title>
<path fill="none" stroke="#536d7f" d="M429.39,-785.01C391.15,-764.15 328.03,-729.72 291.72,-709.91"/>
<text xml:space="preserve" text-anchor="middle" x="390.02" y="-752.8" font-family="DejaVu Sans" font-size="12.00">1</text>
</g>
<!-- R4 -->
<g id="node11" class="node">
<title>R4</title>
<polygon fill="#e7eff5" stroke="#52687a" stroke-width="1.3" points="461.64,-727.2 346.32,-693.6 461.64,-660 576.97,-693.6 461.64,-727.2"/>
<text xml:space="preserve" text-anchor="middle" x="461.64" y="-688.8" font-family="DejaVu Sans" font-size="16.00">Được nhận</text>
</g>
<!-- K&#45;&gt;R4 -->
<g id="edge7" class="edge">
<title>K&#45;&gt;R4</title>
<path fill="none" stroke="#536d7f" d="M461.64,-785.25C461.64,-769.74 461.64,-746.61 461.64,-727.59"/>
<text xml:space="preserve" text-anchor="middle" x="466.13" y="-752.8" font-family="DejaVu Sans" font-size="12.00">N</text>
</g>
<!-- R7 -->
<g id="node14" class="node">
<title>R7</title>
<polygon fill="#e7eff5" stroke="#52687a" stroke-width="1.3" points="560.64,-67.2 479.64,-33.6 560.64,0 641.65,-33.6 560.64,-67.2"/>
<text xml:space="preserve" text-anchor="middle" x="560.64" y="-28.8" font-family="DejaVu Sans" font-size="16.00">Trả lời</text>
</g>
<!-- K&#45;&gt;R7 -->
<g id="edge13" class="edge">
<title>K&#45;&gt;R7</title>
<path fill="none" stroke="#536d7f" d="M525.74,-786.98C570.64,-771.76 622.64,-743.57 622.64,-694.6 622.64,-694.6 622.64,-694.6 622.64,-142.6 622.64,-110.17 601.36,-78.67 583.73,-58.14"/>
<text xml:space="preserve" text-anchor="middle" x="627.13" y="-407.2" font-family="DejaVu Sans" font-size="12.00">N</text>
</g>
<!-- S -->
<g id="node2" class="node">
<title>S</title>
<polygon fill="#f5f8fa" stroke="#52687a" stroke-width="1.3" points="514.51,-601.6 408.78,-601.6 408.78,-565.6 514.51,-565.6 514.51,-601.6"/>
<text xml:space="preserve" text-anchor="middle" x="461.64" y="-578.8" font-family="DejaVu Sans" font-size="16.00">KHẢO SÁT</text>
</g>
<!-- R5 -->
<g id="node12" class="node">
<title>R5</title>
<polygon fill="#e7eff5" stroke="#52687a" stroke-width="1.3" points="461.64,-507.2 398.24,-473.6 461.64,-440 525.05,-473.6 461.64,-507.2"/>
<text xml:space="preserve" text-anchor="middle" x="461.64" y="-468.8" font-family="DejaVu Sans" font-size="16.00">Gồm</text>
</g>
<!-- S&#45;&gt;R5 -->
<g id="edge9" class="edge">
<title>S&#45;&gt;R5</title>
<path fill="none" stroke="#536d7f" d="M461.64,-565.25C461.64,-549.74 461.64,-526.61 461.64,-507.59"/>
<text xml:space="preserve" text-anchor="middle" x="465.46" y="-532.8" font-family="DejaVu Sans" font-size="12.00">1</text>
</g>
<!-- Q -->
<g id="node3" class="node">
<title>Q</title>
<polygon fill="#f5f8fa" stroke="#52687a" stroke-width="1.3" points="506.8,-381.6 416.49,-381.6 416.49,-345.6 506.8,-345.6 506.8,-381.6"/>
<text xml:space="preserve" text-anchor="middle" x="461.64" y="-358.8" font-family="DejaVu Sans" font-size="16.00">CÂU HỎI</text>
</g>
<!-- R6 -->
<g id="node13" class="node">
<title>R6</title>
<polygon fill="#e7eff5" stroke="#52687a" stroke-width="1.3" points="461.64,-287.2 420.14,-253.6 461.64,-220 503.15,-253.6 461.64,-287.2"/>
<text xml:space="preserve" text-anchor="middle" x="461.64" y="-248.8" font-family="DejaVu Sans" font-size="16.00">Có</text>
</g>
<!-- Q&#45;&gt;R6 -->
<g id="edge11" class="edge">
<title>Q&#45;&gt;R6</title>
<path fill="none" stroke="#536d7f" d="M461.64,-345.25C461.64,-329.86 461.64,-306.97 461.64,-288.03"/>
<text xml:space="preserve" text-anchor="middle" x="465.46" y="-312.8" font-family="DejaVu Sans" font-size="12.00">1</text>
</g>
<!-- Q&#45;&gt;R7 -->
<g id="edge14" class="edge">
<title>Q&#45;&gt;R7</title>
<path fill="none" stroke="#536d7f" d="M478.93,-344.99C491.97,-330.64 509.18,-309.21 518.64,-287.2 550.51,-213.07 558.31,-117.08 560.14,-67.49"/>
<text xml:space="preserve" text-anchor="middle" x="551.83" y="-187.2" font-family="DejaVu Sans" font-size="12.00">1</text>
</g>
<!-- L -->
<g id="node4" class="node">
<title>L</title>
<polygon fill="#f5f8fa" stroke="#52687a" stroke-width="1.3" points="515.04,-161.6 404.25,-161.6 404.25,-125.6 515.04,-125.6 515.04,-161.6"/>
<text xml:space="preserve" text-anchor="middle" x="459.64" y="-138.8" font-family="DejaVu Sans" font-size="16.00">LỰA CHỌN</text>
</g>
<!-- L&#45;&gt;R7 -->
<g id="edge15" class="edge">
<title>L&#45;&gt;R7</title>
<path fill="none" stroke="#536d7f" d="M458.31,-125.37C458.29,-114.19 459.92,-99.78 467,-89.2 479.04,-71.21 499.16,-58.37 517.67,-49.68"/>
<text xml:space="preserve" text-anchor="middle" x="502.32" y="-92.8" font-family="DejaVu Sans" font-size="12.00">1 lựa chọn</text>
</g>
<!-- P -->
<g id="node5" class="node">
<title>P</title>
<polygon fill="#f5f8fa" stroke="#52687a" stroke-width="1.3" points="230.72,-601.6 124.56,-601.6 124.56,-565.6 230.72,-565.6 230.72,-601.6"/>
<text xml:space="preserve" text-anchor="middle" x="177.64" y="-578.8" font-family="DejaVu Sans" font-size="16.00">PHẢN HỒI</text>
</g>
<!-- D -->
<g id="node6" class="node">
<title>D</title>
<polygon fill="#f5f8fa" stroke="#52687a" stroke-width="1.3" points="141.65,-821.6 39.64,-821.6 39.64,-785.6 141.65,-785.6 141.65,-821.6"/>
<text xml:space="preserve" text-anchor="middle" x="90.64" y="-798.8" font-family="DejaVu Sans" font-size="16.00">ĐỒ UỐNG</text>
</g>
<!-- R3 -->
<g id="node10" class="node">
<title>R3</title>
<polygon fill="#e7eff5" stroke="#52687a" stroke-width="1.3" points="90.64,-727.2 0,-693.6 90.64,-660 181.29,-693.6 90.64,-727.2"/>
<text xml:space="preserve" text-anchor="middle" x="90.64" y="-688.8" font-family="DejaVu Sans" font-size="16.00">Đánh giá</text>
</g>
<!-- D&#45;&gt;R3 -->
<g id="edge5" class="edge">
<title>D&#45;&gt;R3</title>
<path fill="none" stroke="#536d7f" d="M90.64,-785.25C90.64,-769.74 90.64,-746.61 90.64,-727.59"/>
<text xml:space="preserve" text-anchor="middle" x="94.46" y="-752.8" font-family="DejaVu Sans" font-size="12.00">1</text>
</g>
<!-- T -->
<g id="node7" class="node">
<title>T</title>
<polygon fill="#f5f8fa" stroke="#52687a" stroke-width="1.3" points="541.1,-1041.6 382.19,-1041.6 382.19,-1005.6 541.1,-1005.6 541.1,-1041.6"/>
<text xml:space="preserve" text-anchor="middle" x="461.64" y="-1018.8" font-family="DejaVu Sans" font-size="16.00">NHÓM SỞ THÍCH</text>
</g>
<!-- R1 -->
<g id="node8" class="node">
<title>R1</title>
<polygon fill="#e7eff5" stroke="#52687a" stroke-width="1.3" points="461.64,-947.2 370.9,-913.6 461.64,-880 552.39,-913.6 461.64,-947.2"/>
<text xml:space="preserve" text-anchor="middle" x="461.64" y="-908.8" font-family="DejaVu Sans" font-size="16.00">Ưa thích</text>
</g>
<!-- T&#45;&gt;R1 -->
<g id="edge1" class="edge">
<title>T&#45;&gt;R1</title>
<path fill="none" stroke="#536d7f" d="M461.64,-1005.25C461.64,-989.74 461.64,-966.61 461.64,-947.59"/>
<text xml:space="preserve" text-anchor="middle" x="465.46" y="-972.8" font-family="DejaVu Sans" font-size="12.00">1</text>
</g>
<!-- R1&#45;&gt;K -->
<g id="edge2" class="edge">
<title>R1&#45;&gt;K</title>
<path fill="none" stroke="#536d7f" d="M461.64,-879.32C461.64,-860.47 461.64,-837.67 461.64,-822.25"/>
<text xml:space="preserve" text-anchor="middle" x="466.13" y="-847.2" font-family="DejaVu Sans" font-size="12.00">N</text>
</g>
<!-- R2&#45;&gt;P -->
<g id="edge4" class="edge">
<title>R2&#45;&gt;P</title>
<path fill="none" stroke="#536d7f" d="M246.24,-670.74C230.14,-650.53 206.52,-620.86 191.62,-602.15"/>
<text xml:space="preserve" text-anchor="middle" x="222.55" y="-627.2" font-family="DejaVu Sans" font-size="12.00">N</text>
</g>
<!-- R3&#45;&gt;P -->
<g id="edge6" class="edge">
<title>R3&#45;&gt;P</title>
<path fill="none" stroke="#536d7f" d="M111.26,-667.01C127.44,-646.92 149.53,-619.51 163.69,-601.92"/>
<text xml:space="preserve" text-anchor="middle" x="148.98" y="-627.2" font-family="DejaVu Sans" font-size="12.00">N</text>
</g>
<!-- R4&#45;&gt;S -->
<g id="edge8" class="edge">
<title>R4&#45;&gt;S</title>
<path fill="none" stroke="#536d7f" d="M461.64,-659.61C461.64,-640.63 461.64,-617.54 461.64,-602.04"/>
<text xml:space="preserve" text-anchor="middle" x="466.82" y="-627.2" font-family="DejaVu Sans" font-size="12.00">M</text>
</g>
<!-- R5&#45;&gt;Q -->
<g id="edge10" class="edge">
<title>R5&#45;&gt;Q</title>
<path fill="none" stroke="#536d7f" d="M461.64,-439.32C461.64,-420.47 461.64,-397.67 461.64,-382.25"/>
<text xml:space="preserve" text-anchor="middle" x="466.13" y="-407.2" font-family="DejaVu Sans" font-size="12.00">N</text>
</g>
<!-- R6&#45;&gt;L -->
<g id="edge12" class="edge">
<title>R6&#45;&gt;L</title>
<path fill="none" stroke="#536d7f" d="M461.04,-219.9C460.69,-200.91 460.26,-177.72 459.97,-162.14"/>
<text xml:space="preserve" text-anchor="middle" x="465.07" y="-187.2" font-family="DejaVu Sans" font-size="12.00">N</text>
</g>
</g>
</svg>
