<svg xmlns="http://www.w3.org/2000/svg" xmlns:xlink="http://www.w3.org/1999/xlink" contentStyleType="text/css" data-diagram-type="CLASS" height="441px" preserveAspectRatio="none" style="width:1166px;height:441px;background:#FFFFFF;" version="1.1" viewBox="0 0 1166 441" width="1166px" zoomAndPan="magnify"><?plantuml 1.2026.6?><defs/><g><!--class AuthService--><g class="entity" data-qualified-name="AuthService" data-source-line="18" id="ent0001"><rect fill="#F6F8FA" height="113.3047" rx="4" ry="4" style="stroke:#181818;stroke-width:0.5;" width="336.7778" x="456" y="196"/><ellipse cx="574.8423" cy="218.4609" fill="#ADD1B2" rx="11" ry="11" style="stroke:#181818;stroke-width:1;"/><path d="M577.7642,223.6484 Q577.2485,223.9141 576.686,224.0391 Q576.1235,224.1797 575.4985,224.1797 Q573.2798,224.1797 572.1079,222.7266 Q570.9517,221.2578 570.9517,218.5078 Q570.9517,215.7422 572.1079,214.2891 Q573.2798,212.8203 575.4985,212.8203 Q576.1235,212.8203 576.686,212.9609 Q577.2642,213.0859 577.7642,213.3516 L577.7642,215.7578 Q577.2017,215.2422 576.6704,215.0078 Q576.1548,214.7734 575.5923,214.7734 Q574.4204,214.7734 573.811,215.7109 Q573.2017,216.6484 573.2017,218.5078 Q573.2017,220.3516 573.811,221.2891 Q574.4204,222.2266 575.5923,222.2266 Q576.1548,222.2266 576.6704,221.9922 Q577.2017,221.7578 577.7642,221.2422 L577.7642,223.6484 Z " fill="#000000"/><text fill="#000000" font-family="DejaVu Sans" font-size="15" font-style="italic" lengthAdjust="spacing" textLength="72.085" x="604.5964" y="214.9233">&#171;service&#187;</text><text fill="#000000" font-family="DejaVu Sans" font-size="15" lengthAdjust="spacing" textLength="90.5933" x="595.3423" y="232.3843">AuthService</text><line style="stroke:#181818;stroke-width:0.5;" x1="457" x2="791.7778" y1="240.9219" y2="240.9219"/><line style="stroke:#181818;stroke-width:0.5;" x1="457" x2="791.7778" y1="248.9219" y2="248.9219"/><text fill="#000000" font-family="DejaVu Sans" font-size="15" lengthAdjust="spacing" textLength="200.918" x="462" y="266.8452">+dangKy(dto): KhachHang</text><text fill="#000000" font-family="DejaVu Sans" font-size="15" lengthAdjust="spacing" textLength="324.7778" x="462" y="284.3062">+dangNhap(username, password): Session</text><text fill="#000000" font-family="DejaVu Sans" font-size="15" lengthAdjust="spacing" textLength="281.6528" x="462" y="301.7671">+kiemTraQuyen(session, permission)</text></g><!--class KhachHangService--><g class="entity" data-qualified-name="KhachHangService" data-source-line="23" id="ent0002"><rect fill="#F6F8FA" height="148.2266" rx="4" ry="4" style="stroke:#181818;stroke-width:0.5;" width="310.9087" x="6" y="12"/><ellipse cx="86.5916" cy="34.4609" fill="#ADD1B2" rx="11" ry="11" style="stroke:#181818;stroke-width:1;"/><path d="M89.5134,39.6484 Q88.9978,39.9141 88.4353,40.0391 Q87.8728,40.1797 87.2478,40.1797 Q85.0291,40.1797 83.8572,38.7266 Q82.7009,37.2578 82.7009,34.5078 Q82.7009,31.7422 83.8572,30.2891 Q85.0291,28.8203 87.2478,28.8203 Q87.8728,28.8203 88.4353,28.9609 Q89.0134,29.0859 89.5134,29.3516 L89.5134,31.7578 Q88.9509,31.2422 88.4197,31.0078 Q87.9041,30.7734 87.3416,30.7734 Q86.1697,30.7734 85.5603,31.7109 Q84.9509,32.6484 84.9509,34.5078 Q84.9509,36.3516 85.5603,37.2891 Q86.1697,38.2266 87.3416,38.2266 Q87.9041,38.2266 88.4197,37.9922 Q88.9509,37.7578 89.5134,37.2422 L89.5134,39.6484 Z " fill="#000000"/><text fill="#000000" font-family="DejaVu Sans" font-size="15" font-style="italic" lengthAdjust="spacing" textLength="72.085" x="141.6619" y="30.9233">&#171;service&#187;</text><text fill="#000000" font-family="DejaVu Sans" font-size="15" lengthAdjust="spacing" textLength="141.2256" x="107.0916" y="48.3843">KhachHangService</text><line style="stroke:#181818;stroke-width:0.5;" x1="7" x2="315.9087" y1="56.9219" y2="56.9219"/><line style="stroke:#181818;stroke-width:0.5;" x1="7" x2="315.9087" y1="64.9219" y2="64.9219"/><text fill="#000000" font-family="DejaVu Sans" font-size="15" lengthAdjust="spacing" textLength="198.186" x="12" y="82.8452">+themTaiQuay(actor, dto)</text><text fill="#000000" font-family="DejaVu Sans" font-size="15" lengthAdjust="spacing" textLength="230.9399" x="12" y="100.3062">+capNhatHoSo(customer, dto)</text><text fill="#000000" font-family="DejaVu Sans" font-size="15" lengthAdjust="spacing" textLength="139.9951" x="12" y="117.7671">+timKiem(criteria)</text><text fill="#000000" font-family="DejaVu Sans" font-size="15" lengthAdjust="spacing" textLength="298.9087" x="12" y="135.228">+datTrangThai(actor, customer, status)</text><text fill="#000000" font-family="DejaVu Sans" font-size="15" lengthAdjust="spacing" textLength="170.354" x="12" y="152.689">+xoa(actor, customer)</text></g><!--class PhanHoiService--><g class="entity" data-qualified-name="PhanHoiService" data-source-line="30" id="ent0003"><rect fill="#F6F8FA" height="95.8438" rx="4" ry="4" style="stroke:#181818;stroke-width:0.5;" width="277.2319" x="335" y="38"/><ellipse cx="410.71" cy="60.4609" fill="#ADD1B2" rx="11" ry="11" style="stroke:#181818;stroke-width:1;"/><path d="M413.6318,65.6484 Q413.1162,65.9141 412.5537,66.0391 Q411.9912,66.1797 411.3662,66.1797 Q409.1475,66.1797 407.9756,64.7266 Q406.8193,63.2578 406.8193,60.5078 Q406.8193,57.7422 407.9756,56.2891 Q409.1475,54.8203 411.3662,54.8203 Q411.9912,54.8203 412.5537,54.9609 Q413.1318,55.0859 413.6318,55.3516 L413.6318,57.7578 Q413.0693,57.2422 412.5381,57.0078 Q412.0225,56.7734 411.46,56.7734 Q410.2881,56.7734 409.6787,57.7109 Q409.0693,58.6484 409.0693,60.5078 Q409.0693,62.3516 409.6787,63.2891 Q410.2881,64.2266 411.46,64.2266 Q412.0225,64.2266 412.5381,63.9922 Q413.0693,63.7578 413.6318,63.2422 L413.6318,65.6484 Z " fill="#000000"/><text fill="#000000" font-family="DejaVu Sans" font-size="15" font-style="italic" lengthAdjust="spacing" textLength="72.085" x="453.8235" y="56.9233">&#171;service&#187;</text><text fill="#000000" font-family="DejaVu Sans" font-size="15" lengthAdjust="spacing" textLength="117.312" x="431.21" y="74.3843">PhanHoiService</text><line style="stroke:#181818;stroke-width:0.5;" x1="336" x2="611.2319" y1="82.9219" y2="82.9219"/><line style="stroke:#181818;stroke-width:0.5;" x1="336" x2="611.2319" y1="90.9219" y2="90.9219"/><text fill="#000000" font-family="DejaVu Sans" font-size="15" lengthAdjust="spacing" textLength="152.2192" x="341" y="108.8452">+gui(customer, dto)</text><text fill="#000000" font-family="DejaVu Sans" font-size="15" lengthAdjust="spacing" textLength="265.2319" x="341" y="126.3062">+tiepNhan(actor, feedback, status)</text></g><!--class KhaoSatService--><g class="entity" data-qualified-name="KhaoSatService" data-source-line="34" id="ent0004"><rect fill="#F6F8FA" height="148.2266" rx="4" ry="4" style="stroke:#181818;stroke-width:0.5;" width="290.2983" x="630.5" y="12"/><ellipse cx="712.5271" cy="34.4609" fill="#ADD1B2" rx="11" ry="11" style="stroke:#181818;stroke-width:1;"/><path d="M715.449,39.6484 Q714.9333,39.9141 714.3708,40.0391 Q713.8083,40.1797 713.1833,40.1797 Q710.9646,40.1797 709.7927,38.7266 Q708.6365,37.2578 708.6365,34.5078 Q708.6365,31.7422 709.7927,30.2891 Q710.9646,28.8203 713.1833,28.8203 Q713.8083,28.8203 714.3708,28.9609 Q714.949,29.0859 715.449,29.3516 L715.449,31.7578 Q714.8865,31.2422 714.3552,31.0078 Q713.8396,30.7734 713.2771,30.7734 Q712.1052,30.7734 711.4958,31.7109 Q710.8865,32.6484 710.8865,34.5078 Q710.8865,36.3516 711.4958,37.2891 Q712.1052,38.2266 713.2771,38.2266 Q713.8396,38.2266 714.3552,37.9922 Q714.8865,37.7578 715.449,37.2422 L715.449,39.6484 Z " fill="#000000"/><text fill="#000000" font-family="DejaVu Sans" font-size="15" font-style="italic" lengthAdjust="spacing" textLength="72.085" x="755.8567" y="30.9233">&#171;service&#187;</text><text fill="#000000" font-family="DejaVu Sans" font-size="15" lengthAdjust="spacing" textLength="117.7441" x="733.0271" y="48.3843">KhaoSatService</text><line style="stroke:#181818;stroke-width:0.5;" x1="631.5" x2="919.7983" y1="56.9219" y2="56.9219"/><line style="stroke:#181818;stroke-width:0.5;" x1="631.5" x2="919.7983" y1="64.9219" y2="64.9219"/><text fill="#000000" font-family="DejaVu Sans" font-size="15" lengthAdjust="spacing" textLength="159.6753" x="636.5" y="82.8452">+luuNhap(actor, dto)</text><text fill="#000000" font-family="DejaVu Sans" font-size="15" lengthAdjust="spacing" textLength="259.7534" x="636.5" y="100.3062">+phatHanh(actor, survey, targets)</text><text fill="#000000" font-family="DejaVu Sans" font-size="15" lengthAdjust="spacing" textLength="200.8008" x="636.5" y="117.7671">+layBai(customer, survey)</text><text fill="#000000" font-family="DejaVu Sans" font-size="15" lengthAdjust="spacing" textLength="278.2983" x="636.5" y="135.228">+nopBai(customer, survey, answers)</text><text fill="#000000" font-family="DejaVu Sans" font-size="15" lengthAdjust="spacing" textLength="160.6714" x="636.5" y="152.689">+dong(actor, survey)</text></g><!--class BaoCaoService--><g class="entity" data-qualified-name="BaoCaoService" data-source-line="41" id="ent0005"><rect fill="#F6F8FA" height="113.3047" rx="4" ry="4" style="stroke:#181818;stroke-width:0.5;" width="211.7095" x="938.5" y="29.5"/><ellipse cx="983.635" cy="51.9609" fill="#ADD1B2" rx="11" ry="11" style="stroke:#181818;stroke-width:1;"/><path d="M986.5569,57.1484 Q986.0413,57.4141 985.4788,57.5391 Q984.9163,57.6797 984.2913,57.6797 Q982.0725,57.6797 980.9006,56.2266 Q979.7444,54.7578 979.7444,52.0078 Q979.7444,49.2422 980.9006,47.7891 Q982.0725,46.3203 984.2913,46.3203 Q984.9163,46.3203 985.4788,46.4609 Q986.0569,46.5859 986.5569,46.8516 L986.5569,49.2578 Q985.9944,48.7422 985.4631,48.5078 Q984.9475,48.2734 984.385,48.2734 Q983.2131,48.2734 982.6038,49.2109 Q981.9944,50.1484 981.9944,52.0078 Q981.9944,53.8516 982.6038,54.7891 Q983.2131,55.7266 984.385,55.7266 Q984.9475,55.7266 985.4631,55.4922 Q985.9944,55.2578 986.5569,54.7422 L986.5569,57.1484 Z " fill="#000000"/><text fill="#000000" font-family="DejaVu Sans" font-size="15" font-style="italic" lengthAdjust="spacing" textLength="72.085" x="1024.5623" y="48.4233">&#171;service&#187;</text><text fill="#000000" font-family="DejaVu Sans" font-size="15" lengthAdjust="spacing" textLength="112.9395" x="1004.135" y="65.8843">BaoCaoService</text><line style="stroke:#181818;stroke-width:0.5;" x1="939.5" x2="1149.2095" y1="74.4219" y2="74.4219"/><line style="stroke:#181818;stroke-width:0.5;" x1="939.5" x2="1149.2095" y1="82.4219" y2="82.4219"/><text fill="#000000" font-family="DejaVu Sans" font-size="15" lengthAdjust="spacing" textLength="172.7197" x="944.5" y="100.3452">+thongKeKhachHang()</text><text fill="#000000" font-family="DejaVu Sans" font-size="15" lengthAdjust="spacing" textLength="148.1323" x="944.5" y="117.8062">+thongKeHaiLong()</text><text fill="#000000" font-family="DejaVu Sans" font-size="15" lengthAdjust="spacing" textLength="199.7095" x="944.5" y="135.2671">+thongKeKhaoSat(survey)</text></g><!--class Repository--><g class="entity" data-qualified-name="Repository" data-source-line="46" id="ent0006"><rect fill="#F6F8FA" height="95.8438" rx="4" ry="4" style="stroke:#181818;stroke-width:0.5;" width="197.6177" x="525.5" y="345"/><ellipse cx="568.4738" cy="367.4609" fill="#ADD1B2" rx="11" ry="11" style="stroke:#181818;stroke-width:1;"/><path d="M571.3957,372.6484 Q570.8801,372.9141 570.3176,373.0391 Q569.7551,373.1797 569.1301,373.1797 Q566.9113,373.1797 565.7395,371.7266 Q564.5832,370.2578 564.5832,367.5078 Q564.5832,364.7422 565.7395,363.2891 Q566.9113,361.8203 569.1301,361.8203 Q569.7551,361.8203 570.3176,361.9609 Q570.8957,362.0859 571.3957,362.3516 L571.3957,364.7578 Q570.8332,364.2422 570.302,364.0078 Q569.7863,363.7734 569.2238,363.7734 Q568.052,363.7734 567.4426,364.7109 Q566.8332,365.6484 566.8332,367.5078 Q566.8332,369.3516 567.4426,370.2891 Q568.052,371.2266 569.2238,371.2266 Q569.7863,371.2266 570.302,370.9922 Q570.8332,370.7578 571.3957,370.2422 L571.3957,372.6484 Z " fill="#000000"/><text fill="#000000" font-family="DejaVu Sans" font-size="15" font-style="italic" lengthAdjust="spacing" textLength="107.4536" x="586.6902" y="363.9233">&#171;data access&#187;</text><text fill="#000000" font-family="DejaVu Sans" font-size="15" lengthAdjust="spacing" textLength="80.4346" x="600.1998" y="381.3843">Repository</text><line style="stroke:#181818;stroke-width:0.5;" x1="526.5" x2="722.1177" y1="389.9219" y2="389.9219"/><line style="stroke:#181818;stroke-width:0.5;" x1="526.5" x2="722.1177" y1="397.9219" y2="397.9219"/><text fill="#000000" font-family="DejaVu Sans" font-size="15" lengthAdjust="spacing" textLength="185.6177" x="531.5" y="415.8452">+query(sql, parameters)</text><text fill="#000000" font-family="DejaVu Sans" font-size="15" lengthAdjust="spacing" textLength="170.4272" x="531.5" y="433.3062">+transaction(callback)</text></g><g class="link" data-entity-1="ent0002" data-entity-2="ent0001" data-link-type="dependency" id="lnk7"><polygon fill="#34546B" points="455.6645,203.7603,448.2393,197.2898,450.8857,202.2895,445.886,204.9359,455.6645,203.7603" style="stroke:#34546B;stroke-width:1;stroke-linejoin:miter;stroke-miterlimit:10;"/><path d="M317.1258,156.8212 C319.9337,157.9022 322.7269,158.9629 325.5,160 C367.1941,175.593 408.0766,189.1138 450.8857,202.2895" fill="none" style="stroke:#34546B;stroke-width:1;stroke-dasharray:7,7;"/></g><g class="link" data-entity-1="ent0003" data-entity-2="ent0001" data-link-type="dependency" id="lnk8"><polygon fill="#34546B" points="573.4778,195.9162,570.3385,186.5811,570.0967,192.2328,564.445,191.9909,573.4778,195.9162" style="stroke:#34546B;stroke-width:1;stroke-linejoin:miter;stroke-miterlimit:10;"/><path d="M516.7705,134.1391 C534.4618,153.412 551.6783,172.1677 570.0967,192.2328" fill="none" style="stroke:#34546B;stroke-width:1;stroke-dasharray:7,7;"/></g><g class="link" data-entity-1="ent0004" data-entity-2="ent0001" data-link-type="dependency" id="lnk9"><polygon fill="#34546B" points="675.5395,195.8974,684.5723,191.9721,678.9206,192.214,678.6788,186.5623,675.5395,195.8974" style="stroke:#34546B;stroke-width:1;stroke-linejoin:miter;stroke-miterlimit:10;"/><path d="M708.3898,160.1101 C697.3625,172.1233 689.4747,180.7163 678.9206,192.214" fill="none" style="stroke:#34546B;stroke-width:1;stroke-dasharray:7,7;"/></g><g class="link" data-entity-1="ent0005" data-entity-2="ent0001" data-link-type="dependency" id="lnk10"><polygon fill="#34546B" points="793.3462,209.8194,803.1162,211.0637,798.1352,208.3823,800.8167,203.4013,793.3462,209.8194" style="stroke:#34546B;stroke-width:1;stroke-linejoin:miter;stroke-miterlimit:10;"/><path d="M962.7963,142.6376 C951.8522,148.9604 940.5775,154.9393 929.5,160 C886.6328,179.5836 843.2821,194.8338 798.1352,208.3823" fill="none" style="stroke:#34546B;stroke-width:1;stroke-dasharray:7,7;"/></g><g class="link" data-entity-1="ent0001" data-entity-2="ent0006" data-link-type="dependency" id="lnk11"><polygon fill="#34546B" points="624.5,344.9139,628.5,335.9139,624.5,339.9139,620.5,335.9139,624.5,344.9139" style="stroke:#34546B;stroke-width:1;stroke-linejoin:miter;stroke-miterlimit:10;"/><path d="M624.5,309.0352 C624.5,320.9259 624.5,328.3785 624.5,339.9139" fill="none" style="stroke:#34546B;stroke-width:1;stroke-dasharray:7,7;"/></g><g class="link" data-entity-1="ent0002" data-entity-2="ent0006" data-link-type="dependency" id="lnk12"><polygon fill="#34546B" points="525.431,357.8799,518.5531,350.8305,520.7867,356.0277,515.5895,358.2614,525.431,357.8799" style="stroke:#34546B;stroke-width:1;stroke-linejoin:miter;stroke-miterlimit:10;"/><path d="M235.4987,160.2546 C285.7294,207.1475 355.359,266.8737 424.5,309 C455.8014,328.0714 487.6264,342.803 520.7867,356.0277" fill="none" style="stroke:#34546B;stroke-width:1;stroke-dasharray:7,7;"/></g><g class="link" data-entity-1="ent0003" data-entity-2="ent0006" data-link-type="dependency" id="lnk13"><polygon fill="#34546B" points="525.3012,368.3827,518.4724,361.2856,520.6699,366.4982,515.4573,368.6957,525.3012,368.3827" style="stroke:#34546B;stroke-width:1;stroke-linejoin:miter;stroke-miterlimit:10;"/><path d="M451.2294,134.2451 C432.2516,182.066 412.9134,256.2804 446.5,309 C464.4542,337.1821 490.116,354.0661 520.6699,366.4982" fill="none" style="stroke:#34546B;stroke-width:1;stroke-dasharray:7,7;"/></g><g class="link" data-entity-1="ent0004" data-entity-2="ent0006" data-link-type="dependency" id="lnk14"><polygon fill="#34546B" points="723.6205,368.0652,733.4656,368.338,728.2441,366.1619,730.4202,360.9403,723.6205,368.0652" style="stroke:#34546B;stroke-width:1;stroke-linejoin:miter;stroke-miterlimit:10;"/><path d="M806.5098,160.0428 C820.9291,206.1274 829.4438,265.0328 801.5,309 C783.75,336.9282 758.4695,353.719 728.2441,366.1619" fill="none" style="stroke:#34546B;stroke-width:1;stroke-dasharray:7,7;"/></g><g class="link" data-entity-1="ent0005" data-entity-2="ent0006" data-link-type="dependency" id="lnk15"><polygon fill="#34546B" points="723.5711,360.1681,733.4092,360.6283,728.2301,358.3531,730.5052,353.1739,723.5711,360.1681" style="stroke:#34546B;stroke-width:1;stroke-linejoin:miter;stroke-miterlimit:10;"/><path d="M1000.4571,142.9693 C959.464,192.0542 894.4659,262.633 825.5,309 C794.4821,329.8539 762.0537,345.1763 728.2301,358.3531" fill="none" style="stroke:#34546B;stroke-width:1;stroke-dasharray:7,7;"/></g><?plantuml-src XLDTRzD047pFhpZK5qT4LIbDAQYgb1H5GO68uehtxNbZ7x7ltBkzfWRntraxRdrn4l5ssfdRcVrwKrf82n0vLCQJS0KIQ1YujT8bM2X4WYlmESsCfYKKA3xZB_ZfHGpQ7MR5wZUAT-C0T1aaPgDqAbQGEmoG1v3hr1glarkJ6oiscQ8GdrXhDblevFt5-E9o6e0o1-ScH5OzUC8lqkX6-YoWDAcbiHgjk0hY9Uj2YZ5LEGgBacjEyr3OuQD7BV4REiV4IQvIBIHgGXkm2dXk2Oto-NcelJI4qrvz9xFpsNZseSyoDa7RCgxEFeudutwP-uakPrUpIK3p3YKu_3yH91cxhToHaki2z63GY8Y9fon6-wGaYkjhjttTt8W_0_4suHOjgYWXC_ma5Xd8RCwH5bXcK4Rim6fUaH6trxaD5yNCcFkZZ6RUMc5nR-7ELwWZjmqp5MsXclTmyBUryPhzc1VAE1MeEmzLr9Gp4hKlHYIKx8Nc9ZQHz8vCWHr8gbYmYKXQtZAhODYu9pQbq_iCr4kkxgCZ8EzgthE1FjmP_fw1dXjrp6xgrI4pM5lLBrbNY4bz3freq0uJ0ntBddlVj7-t4MNT1T3PIzXv-uJLI13O5AafYKz-2g6pBQU6j2aFGIF1Lxz1stnFZ4vtitUMfs1ksVJHyV7N1RwEEHfsmJcehsOtrDOVzKL-O6cSOlsA5NYEmAijUQzQ5JvWMqNkCQ_taHSVgJLEF6_7nddd8WbvNdUzphgtTgUdD-5937fZxiEzEVNXtPxqqV3qQgmhxh2l03zWQ_TttrM0xfiAm7y0?></g></svg>