<svg xmlns="http://www.w3.org/2000/svg" xmlns:xlink="http://www.w3.org/1999/xlink" contentStyleType="text/css" data-diagram-type="DESCRIPTION" height="231px" preserveAspectRatio="none" style="width:1156px;height:231px;background:#FFFFFF;" version="1.1" viewBox="0 0 1156 231" width="1156px" zoomAndPan="magnify"><?plantuml 1.2026.6?><defs/><g><!--cluster Thi?t b? ng??i d?ng--><g class="cluster" data-qualified-name="Thi.t b. ng..i d.ng" data-source-line="19" id="ent0001"><polygon fill="none" points="14,14,24,4,266,4,266,213,256,223,14,223,14,14" style="stroke:#181818;stroke-width:1;stroke-linejoin:miter;stroke-miterlimit:10;"/><line style="stroke:#181818;stroke-width:1;" x1="256" x2="266" y1="14" y2="4"/><line style="stroke:#181818;stroke-width:1;" x1="14" x2="256" y1="14" y2="14"/><line style="stroke:#181818;stroke-width:1;" x1="256" x2="256" y1="14" y2="223"/><text fill="#000000" font-family="DejaVu Sans" font-size="15" font-weight="700" lengthAdjust="spacing" textLength="165.3149" x="53.3425" y="30.9233">Thi&#7871;t b&#7883; ng&#432;&#7901;i d&#249;ng</text></g><!--cluster M?y ch? ?ng d?ng--><g class="cluster" data-qualified-name="M.y ch. .ng d.ng" data-source-line="24" id="ent0005"><polygon fill="none" points="338,70,348,60,841,60,841,157,831,167,338,167,338,70" style="stroke:#181818;stroke-width:1;stroke-linejoin:miter;stroke-miterlimit:10;"/><line style="stroke:#181818;stroke-width:1;" x1="831" x2="841" y1="70" y2="60"/><line style="stroke:#181818;stroke-width:1;" x1="338" x2="831" y1="70" y2="70"/><line style="stroke:#181818;stroke-width:1;" x1="831" x2="831" y1="70" y2="167"/><text fill="#000000" font-family="DejaVu Sans" font-size="15" font-weight="700" lengthAdjust="spacing" textLength="155.6689" x="507.6655" y="86.9233">M&#225;y ch&#7911; &#7913;ng d&#7909;ng</text></g><!--entity DB--><g class="entity" data-qualified-name="DB" data-source-line="28" id="ent0008"><path d="M990,104 C990,94 1069.0271,94 1069.0271,94 C1069.0271,94 1148.0542,94 1148.0542,104 L1148.0542,147.9219 C1148.0542,157.9219 1069.0271,157.9219 1069.0271,157.9219 C1069.0271,157.9219 990,157.9219 990,147.9219 L990,104" fill="#F1F1F1" style="stroke:#181818;stroke-width:0.5;"/><path d="M990,104 C990,114 1069.0271,114 1069.0271,114 C1069.0271,114 1148.0542,114 1148.0542,104" fill="none" style="stroke:#181818;stroke-width:0.5;"/><text fill="#000000" font-family="DejaVu Sans" font-size="15" lengthAdjust="spacing" textLength="86.521" x="1000" y="131.9233">PostgreSQL</text><text fill="#000000" font-family="DejaVu Sans" font-size="15" lengthAdjust="spacing" textLength="138.0542" x="1000" y="149.3843">11 b&#7843;ng v&#224; 6 view</text></g><!--entity C--><g class="entity" data-qualified-name="Thi.t b. ng..i d.ng.C" data-source-line="20" id="ent0002"><rect fill="#F1F1F1" height="47.4609" rx="4" ry="4" style="stroke:#181818;stroke-width:0.5;" width="165.9839" x="57" y="37.5"/><rect fill="#F1F1F1" height="10" style="stroke:#181818;stroke-width:0.5;" width="15" x="202.9839" y="42.5"/><rect fill="#F1F1F1" height="2" style="stroke:#181818;stroke-width:0.5;" width="4" x="200.9839" y="44.5"/><rect fill="#F1F1F1" height="2" style="stroke:#181818;stroke-width:0.5;" width="4" x="200.9839" y="48.5"/><text fill="#000000" font-family="DejaVu Sans" font-size="15" lengthAdjust="spacing" textLength="125.9839" x="72" y="71.4233">Web kh&#225;ch h&#224;ng</text></g><!--entity M--><g class="entity" data-qualified-name="Thi.t b. ng..i d.ng.M" data-source-line="21" id="ent0003"><rect fill="#F1F1F1" height="47.4609" rx="4" ry="4" style="stroke:#181818;stroke-width:0.5;" width="235.7544" x="22" y="102.5"/><rect fill="#F1F1F1" height="10" style="stroke:#181818;stroke-width:0.5;" width="15" x="237.7544" y="107.5"/><rect fill="#F1F1F1" height="2" style="stroke:#181818;stroke-width:0.5;" width="4" x="235.7544" y="109.5"/><rect fill="#F1F1F1" height="2" style="stroke:#181818;stroke-width:0.5;" width="4" x="235.7544" y="113.5"/><text fill="#000000" font-family="DejaVu Sans" font-size="15" lengthAdjust="spacing" textLength="195.7544" x="37" y="136.4233">Web nh&#226;n vi&#234;n v&#224; qu&#7843;n l&#253;</text></g><!--entity A--><g class="entity" data-qualified-name="Thi.t b. ng..i d.ng.A" data-source-line="22" id="ent0004"><rect fill="#F1F1F1" height="47.4609" rx="4" ry="4" style="stroke:#181818;stroke-width:0.5;" width="196.4453" x="42" y="167.5"/><rect fill="#F1F1F1" height="10" style="stroke:#181818;stroke-width:0.5;" width="15" x="218.4453" y="172.5"/><rect fill="#F1F1F1" height="2" style="stroke:#181818;stroke-width:0.5;" width="4" x="216.4453" y="174.5"/><rect fill="#F1F1F1" height="2" style="stroke:#181818;stroke-width:0.5;" width="4" x="216.4453" y="178.5"/><text fill="#000000" font-family="DejaVu Sans" font-size="15" lengthAdjust="spacing" textLength="156.4453" x="57" y="201.4233">Khu v&#7921;c Admin ri&#234;ng</text></g><!--entity API--><g class="entity" data-qualified-name="M.y ch. .ng d.ng.API" data-source-line="25" id="ent0006"><rect fill="#F1F1F1" height="64.9219" rx="4" ry="4" style="stroke:#181818;stroke-width:0.5;" width="222.3657" x="346" y="93.5"/><rect fill="#F1F1F1" height="10" style="stroke:#181818;stroke-width:0.5;" width="15" x="548.3657" y="98.5"/><rect fill="#F1F1F1" height="2" style="stroke:#181818;stroke-width:0.5;" width="4" x="546.3657" y="100.5"/><rect fill="#F1F1F1" height="2" style="stroke:#181818;stroke-width:0.5;" width="4" x="546.3657" y="104.5"/><text fill="#000000" font-family="DejaVu Sans" font-size="15" lengthAdjust="spacing" textLength="67.0825" x="361" y="127.4233">REST API</text><text fill="#000000" font-family="DejaVu Sans" font-size="15" lengthAdjust="spacing" textLength="182.3657" x="361" y="144.8843">X&#225;c th&#7921;c v&#224; ph&#226;n quy&#7873;n</text></g><!--entity S--><g class="entity" data-qualified-name="M.y ch. .ng d.ng.S" data-source-line="26" id="ent0007"><rect fill="#F1F1F1" height="64.9219" rx="4" ry="4" style="stroke:#181818;stroke-width:0.5;" width="227.5732" x="605" y="93.5"/><rect fill="#F1F1F1" height="10" style="stroke:#181818;stroke-width:0.5;" width="15" x="812.5732" y="98.5"/><rect fill="#F1F1F1" height="2" style="stroke:#181818;stroke-width:0.5;" width="4" x="810.5732" y="100.5"/><rect fill="#F1F1F1" height="2" style="stroke:#181818;stroke-width:0.5;" width="4" x="810.5732" y="104.5"/><text fill="#000000" font-family="DejaVu Sans" font-size="15" lengthAdjust="spacing" textLength="95.2295" x="620" y="127.4233">D&#7883;ch v&#7909; CRM</text><text fill="#000000" font-family="DejaVu Sans" font-size="15" lengthAdjust="spacing" textLength="187.5732" x="620" y="144.8843">Validation v&#224; transaction</text></g><g class="link" data-entity-1="ent0002" data-entity-2="ent0006" data-link-type="dependency" id="lnk9"><polygon fill="#34546B" points="345.9747,103.2964,337.9688,97.5601,341.0779,102.2859,336.3521,105.395,345.9747,103.2964" style="stroke:#34546B;stroke-width:1;stroke-linejoin:miter;stroke-miterlimit:10;"/><path d="M223.3511,77.9931 C260.8114,85.723 300.7829,93.9711 341.0779,102.2859" fill="none" style="stroke:#34546B;stroke-width:1;"/><text fill="#000000" font-family="DejaVu Sans" font-size="15" lengthAdjust="spacing" textLength="48.1714" x="278" y="84.9233">HTTPS</text></g><g class="link" data-entity-1="ent0003" data-entity-2="ent0006" data-link-type="dependency" id="lnk10"><polygon fill="#34546B" points="345.9112,126,336.9112,122,340.9112,126,336.9112,130,345.9112,126" style="stroke:#34546B;stroke-width:1;stroke-linejoin:miter;stroke-miterlimit:10;"/><path d="M258.2944,126 C286.9812,126 312.5752,126 340.9112,126" fill="none" style="stroke:#34546B;stroke-width:1;"/><text fill="#000000" font-family="DejaVu Sans" font-size="15" lengthAdjust="spacing" textLength="48.1714" x="278" y="120.9233">HTTPS</text></g><g class="link" data-entity-1="ent0004" data-entity-2="ent0006" data-link-type="dependency" id="lnk11"><polygon fill="#34546B" points="345.7548,148.749,336.1322,146.6504,340.858,149.7595,337.7489,154.4853,345.7548,148.749" style="stroke:#34546B;stroke-width:1;stroke-linejoin:miter;stroke-miterlimit:10;"/><path d="M238.0807,170.9675 C272.1559,163.9361 305.7816,156.9974 340.858,149.7595" fill="none" style="stroke:#34546B;stroke-width:1;"/><text fill="#000000" font-family="DejaVu Sans" font-size="15" lengthAdjust="spacing" textLength="48.1714" x="278" y="146.9233">HTTPS</text></g><g class="link" data-entity-1="ent0006" data-entity-2="ent0007" data-link-type="dependency" id="lnk12"><polygon fill="#34546B" points="604.6545,126,595.6545,122,599.6545,126,595.6545,130,604.6545,126" style="stroke:#34546B;stroke-width:1;stroke-linejoin:miter;stroke-miterlimit:10;"/><path d="M568.2634,126 C580.3046,126 587.577,126 599.6545,126" fill="none" style="stroke:#34546B;stroke-width:1;"/></g><g class="link" data-entity-1="ent0007" data-entity-2="ent0008" data-link-type="dependency" id="lnk13"><polygon fill="#34546B" points="989.8902,126,980.8902,122,984.8902,126,980.8902,130,989.8902,126" style="stroke:#34546B;stroke-width:1;stroke-linejoin:miter;stroke-miterlimit:10;"/><path d="M833.4667,126 C884.64,126 938.7932,126 984.8902,126" fill="none" style="stroke:#34546B;stroke-width:1;"/><text fill="#000000" font-family="DejaVu Sans" font-size="15" lengthAdjust="spacing" textLength="29.6851" x="853" y="120.9233">SQL</text><text fill="#000000" font-family="DejaVu Sans" font-size="15" lengthAdjust="spacing" textLength="4.7681" x="882.6851" y="120.9233">&#160;</text><text fill="#000000" font-family="DejaVu Sans" font-size="15" lengthAdjust="spacing" textLength="17.4243" x="887.4531" y="120.9233">c&#243;</text><text fill="#000000" font-family="DejaVu Sans" font-size="15" lengthAdjust="spacing" textLength="4.7681" x="904.8774" y="120.9233">&#160;</text><text fill="#000000" font-family="DejaVu Sans" font-size="15" lengthAdjust="spacing" textLength="39.1919" x="909.6455" y="120.9233">tham</text><text fill="#000000" font-family="DejaVu Sans" font-size="15" lengthAdjust="spacing" textLength="4.7681" x="948.8374" y="120.9233">&#160;</text><text fill="#000000" font-family="DejaVu Sans" font-size="15" lengthAdjust="spacing" textLength="16.9922" x="953.6055" y="120.9233">s&#7889;</text></g><?plantuml-src XLF1RjD04BtxAuRqNAajJIaSa9o4Y0fIXJeg77gPhAVs4distLqtf8W3Pqvy058BgX2SG9oeXJXOuZ_y9woT7Dm4YOlNclTctdlZzPsfnYX5I72kCWic9OkCdfb8dgB6548wnIonVSNs45E27ht4umm2PFDlLY0l2BRR3T346AgPv0XECJ7KGCOe9f5M6OTTbIWDirZQ9kvhhMOBQEFkRdjthzC0HOB6-DPgESui7GZ5jVHMWrAF5aepQTXlrATE5oCAx3mXq2HSvYXf2XiwouW53SWOH_GJ6J48OakwmKhnrP9GA-_iDBKFbQNEIhwD_aw_tR-tob8w9Brax6_TR_ljrPZhW_Rw-ts_GSiC2JJqVo8Ag_GYkR5IJ59apqler89Le6KKMmXbjHEfs6CL4hH6iInlVbiOb_axuEZFjpB_824iVdBKWjSU29LE5RljGEivZM4I5rSYXhYuh70qq5sZS5nyP3YNnLVtB2xXB2jlFZ4anQ-wON2huKcSmNcPVnVWXwbaPzArBIRxtfkbnq5nDGSHb_bdAFClxgw5PNwzxk_eKJ02VtXmmY-SIR1nFRUoCAqjdMNpCd_BY-73WrkzFHVVvN9Mhg5xD3ZXOqnaYDMYwWbMkvy2wyNL_O4pvs0Sk-y2hQ4oDj8KF7jwmjlRRfSkS5JtxRb5qAnkwNMyBcnkFgoquG4y7es6WJTOg_Zh5VTUrG8lgCzUnq5E2qJnmwMihdIPl_V-0W00?></g></svg>